<svg width="48" height="48" viewBox="0 0 48 48" fill="none" xmlns="http://www.w3.org/2000/svg">
<path d="M30.273 17.636L39 22" stroke="black" stroke-width="2" stroke-miterlimit="10" stroke-linecap="round" stroke-linejoin="round"/>
<path d="M38 10L36 7L30.133 17.9C29.7901 18.5353 29.2816 19.0659 28.6616 19.4356C28.0415 19.8054 27.3329 20.0004 26.611 20H12C10.9391 20 9.92172 20.4214 9.17157 21.1716C8.42143 21.9217 8 22.9391 8 24V45H13L13.954 37.412C13.9843 37.1401 14.0701 36.8774 14.206 36.64L18 30L28.812 33.6C29.1956 33.717 29.5351 33.9466 29.7866 34.259C30.038 34.5715 30.1897 34.9523 30.222 35.352L31 45H36V34L40 18H42C43.0609 18 44.0783 17.5786 44.8284 16.8284C45.5786 16.0783 46 15.0609 46 14V11L38 10Z" stroke="black" stroke-width="2" stroke-miterlimit="10" stroke-linecap="round" stroke-linejoin="round"/>
<path d="M25 15C21.8174 15 18.7652 13.7357 16.5147 11.4853C14.2643 9.23484 13 6.1826 13 3" stroke="black" stroke-width="2" stroke-miterlimit="10" stroke-linecap="round" stroke-linejoin="round"/>
<path d="M2 14C2 15.5913 2.63214 17.1174 3.75736 18.2426C4.88258 19.3679 6.4087 20 8 20H12" stroke="black" stroke-width="2" stroke-miterlimit="10" stroke-linecap="round" stroke-linejoin="round"/>
</svg>
