<svg width="48" height="48" viewBox="0 0 48 48" fill="none" xmlns="http://www.w3.org/2000/svg">
<path d="M35.834 28C35.3636 30.7985 33.9167 33.3397 31.7502 35.1725C29.5837 37.0053 26.8378 38.0109 24 38.0109C21.1623 38.0109 18.4163 37.0053 16.2498 35.1725C14.0833 33.3397 12.6364 30.7985 12.166 28" stroke="black" stroke-width="2" stroke-miterlimit="10" stroke-linecap="round" stroke-linejoin="round"/>
<path d="M36 21C36 19.9391 35.5786 18.9217 34.8284 18.1716C34.0783 17.4214 33.0609 17 32 17C30.9391 17 29.9217 17.4214 29.1716 18.1716C28.4214 18.9217 28 19.9391 28 21" stroke="black" stroke-width="2" stroke-miterlimit="10" stroke-linecap="round" stroke-linejoin="round"/>
<path d="M20 21C20 19.9391 19.5786 18.9217 18.8284 18.1716C18.0783 17.4214 17.0609 17 16 17C14.9391 17 13.9217 17.4214 13.1716 18.1716C12.4214 18.9217 12 19.9391 12 21" stroke="black" stroke-width="2" stroke-miterlimit="10" stroke-linecap="round" stroke-linejoin="round"/>
<path d="M24 45C35.598 45 45 35.598 45 24C45 12.402 35.598 3 24 3C12.402 3 3 12.402 3 24C3 35.598 12.402 45 24 45Z" stroke="black" stroke-width="2" stroke-miterlimit="10" stroke-linecap="round" stroke-linejoin="round"/>
</svg>
