<svg width="48" height="48" viewBox="0 0 48 48" fill="none" xmlns="http://www.w3.org/2000/svg">
<path d="M40.5 12C42.9853 12 45 9.98528 45 7.5C45 5.01472 42.9853 3 40.5 3C38.0147 3 36 5.01472 36 7.5C36 9.98528 38.0147 12 40.5 12Z" stroke="black" stroke-width="2" stroke-miterlimit="10" stroke-linecap="round" stroke-linejoin="round"/>
<path d="M37.5 46.5L1.5 28.5" stroke="black" stroke-width="2" stroke-miterlimit="10" stroke-linecap="round" stroke-linejoin="round"/>
<path d="M31.7812 19.4062L32.2605 24.2167C32.2991 24.6179 32.4448 25.0013 32.6823 25.3269C32.9198 25.6525 33.2403 25.9084 33.6105 26.0677L39.105 28.425C39.3452 28.5276 39.6034 28.5819 39.8646 28.5847C40.1258 28.5875 40.385 28.5387 40.6274 28.4412C40.8698 28.3436 41.0905 28.1993 41.277 28.0163C41.4635 27.8334 41.6121 27.6154 41.7142 27.375V27.375C41.907 26.9254 41.927 26.4206 41.7707 25.9571C41.6143 25.4936 41.2924 25.1042 40.8667 24.8632L36.6097 22.4535L35.9587 15.9232C35.8318 14.9074 35.36 13.966 34.6222 13.2562C33.7677 12.4712 32.6489 12.0367 31.4885 12.0391C30.3281 12.0414 29.2111 12.4805 28.3597 13.269L20.9895 19.905C20.5502 20.3003 20.1931 20.7783 19.9385 21.3116C19.684 21.845 19.5369 22.4233 19.5059 23.0134C19.4748 23.6036 19.5603 24.1941 19.7575 24.7513C19.9546 25.3084 20.2596 25.8212 20.655 26.2605C20.706 26.3167 25.0417 30.531 25.0417 30.531L17.25 36.375" stroke="black" stroke-width="2" stroke-miterlimit="10" stroke-linecap="round" stroke-linejoin="round"/>
<path d="M21.75 38.625L29.85 32.55C30.1102 32.3548 30.3251 32.1055 30.4797 31.8193C30.6342 31.5331 30.7249 31.2167 30.7455 30.892C30.766 30.5674 30.7159 30.2421 30.5986 29.9387C30.4813 29.6353 30.2996 29.3609 30.066 29.1345L25.5465 24.6562" stroke="black" stroke-width="2" stroke-miterlimit="10" stroke-linecap="round" stroke-linejoin="round"/>
<path d="M28.5 21.75L3 8.25" stroke="black" stroke-width="2" stroke-miterlimit="10" stroke-linecap="round" stroke-linejoin="round"/>
</svg>
