<svg width="48" height="48" viewBox="0 0 48 48" fill="none" xmlns="http://www.w3.org/2000/svg">
<path d="M23 10.414V19.101C23.323 19.035 23.657 19 24 19C24.343 19 24.677 19.035 25 19.101V10.414L30.707 4.707C31.098 4.316 31.098 3.684 30.707 3.293C30.316 2.902 29.684 2.902 29.293 3.293L25 7.586V2C25 1.448 24.553 1 24 1C23.447 1 23 1.448 23 2V7.586L18.707 3.293C18.316 2.902 17.684 2.902 17.293 3.293C16.902 3.684 16.902 4.316 17.293 4.707L23 10.414Z" fill="black"/>
<path d="M28.723 22.428L36.266 18.073L44.062 20.162C44.149 20.185 44.236 20.197 44.322 20.197C44.763 20.197 45.168 19.902 45.287 19.455C45.43 18.922 45.113 18.373 44.58 18.23L38.716 16.659L43.554 13.866C44.033 13.59 44.197 12.978 43.92 12.5C43.643 12.021 43.029 11.857 42.554 12.134L37.716 14.927L39.287 9.06198C39.43 8.52898 39.113 7.97998 38.58 7.83698C38.049 7.69598 37.498 8.01098 37.355 8.54398L35.266 16.34L27.726 20.693C28.169 21.194 28.507 21.78 28.723 22.428Z" fill="black"/>
<path d="M44.062 27.838L36.267 29.927L28.724 25.572C28.508 26.22 28.17 26.806 27.726 27.306L35.266 31.659L37.355 39.455C37.474 39.902 37.878 40.197 38.32 40.197C38.406 40.197 38.493 40.186 38.58 40.162C39.113 40.019 39.43 39.471 39.287 38.937L37.716 33.072L42.554 35.865C42.71 35.957 42.882 36 43.052 36C43.398 36 43.734 35.821 43.919 35.5C44.195 35.021 44.031 34.41 43.553 34.134L38.716 31.341L44.58 29.77C45.113 29.627 45.43 29.079 45.287 28.545C45.144 28.011 44.597 27.696 44.062 27.838Z" fill="black"/>
<path d="M25 37.586V28.899C24.677 28.965 24.343 29 24 29C23.657 29 23.323 28.965 23 28.899V37.586L17.293 43.293C16.902 43.684 16.902 44.316 17.293 44.707C17.684 45.098 18.316 45.098 18.707 44.707L23 40.414V46C23 46.552 23.447 47 24 47C24.553 47 25 46.552 25 46V40.414L29.293 44.707C29.488 44.902 29.744 45 30 45C30.256 45 30.512 44.902 30.707 44.707C31.098 44.316 31.098 43.684 30.707 43.293L25 37.586Z" fill="black"/>
<path d="M19.277 25.572L11.734 29.927L3.938 27.838C3.407 27.697 2.856 28.011 2.713 28.545C2.57 29.078 2.887 29.627 3.42 29.77L9.284 31.341L4.446 34.134C3.969 34.41 3.805 35.021 4.081 35.5C4.267 35.821 4.603 36 4.948 36C5.118 36 5.29 35.957 5.447 35.866L10.285 33.073L8.714 38.937C8.571 39.47 8.888 40.019 9.421 40.162C9.508 40.185 9.595 40.197 9.681 40.197C10.122 40.197 10.527 39.902 10.646 39.455L12.735 31.659L20.275 27.306C19.831 26.806 19.493 26.22 19.277 25.572Z" fill="black"/>
<path d="M3.67901 20.1971C3.76501 20.1971 3.85201 20.1861 3.93901 20.1621L11.735 18.0731L19.278 22.4281C19.494 21.7801 19.832 21.1941 20.276 20.6941L12.736 16.3411L10.647 8.54505C10.504 8.01205 9.95601 7.69605 9.42201 7.83805C8.88901 7.98105 8.57201 8.52905 8.71501 9.06305L10.286 14.9281L5.44801 12.1351C4.97001 11.8581 4.35801 12.0231 4.08201 12.5011C3.80601 12.9791 3.97001 13.5911 4.44801 13.8671L9.28601 16.6601L3.42101 18.2301C2.88801 18.3731 2.57101 18.9211 2.71401 19.4551C2.83301 19.9021 3.23701 20.1971 3.67901 20.1971Z" fill="black"/>
<path d="M24 27C25.6569 27 27 25.6569 27 24C27 22.3431 25.6569 21 24 21C22.3431 21 21 22.3431 21 24C21 25.6569 22.3431 27 24 27Z" fill="black"/>
</svg>
